<?xml version="1.0" encoding="utf-8"?>
<!-- Generator: Adobe Illustrator 23.0.3, SVG Export Plug-In . SVG Version: 6.00 Build 0)  -->
<svg version="1.1" id="Layer_1" xmlns="http://www.w3.org/2000/svg" xmlns:xlink="http://www.w3.org/1999/xlink" x="0px" y="0px"
	 viewBox="0 0 17 17" style="enable-background:new 0 0 17 17;" xml:space="preserve">
<path id="Vector" d="M14,2.2l0.4,0.4c0.3,0.3,0.3,0.8,0,1l-0.9,0.9l-1.4-1.4L13,2.2C13.3,1.9,13.7,1.9,14,2.2L14,2.2z M6.9,8.2
	L11,4.1l1.4,1.4L8.3,9.6C8.3,9.7,8.1,9.8,8,9.8l-1.8,0.5l0.5-1.8C6.8,8.4,6.8,8.3,6.9,8.2L6.9,8.2z M11.9,1.1l-6.1,6
	c-0.3,0.3-0.5,0.6-0.6,1l-0.9,3.1c-0.1,0.3,0,0.5,0.2,0.7c0.2,0.2,0.5,0.3,0.7,0.2l3.1-0.9c0.4-0.1,0.7-0.3,1-0.6l6.1-6
	c0.9-0.9,0.9-2.3,0-3.1l-0.4-0.4C14.2,0.3,12.8,0.3,11.9,1.1z M3.2,2.3C1.7,2.3,0.5,3.6,0.5,5v8.3c0,1.5,1.2,2.7,2.7,2.7h8.3
	c1.5,0,2.7-1.2,2.7-2.7V9.9c0-0.4-0.3-0.7-0.7-0.7c-0.4,0-0.7,0.3-0.7,0.7v3.4c0,0.7-0.5,1.2-1.2,1.2H3.2c-0.7,0-1.2-0.5-1.2-1.2V5
	c0-0.7,0.5-1.2,1.2-1.2h3.4c0.4,0,0.7-0.3,0.7-0.7S7,2.3,6.6,2.3H3.2z"/>
</svg>
